<?xml version="1.0" standalone="no"?><!DOCTYPE svg PUBLIC "-//W3C//DTD SVG 1.1//EN" "http://www.w3.org/Graphics/SVG/1.1/DTD/svg11.dtd"><svg t="1613032402985" class="icon" viewBox="0 0 1024 1024" version="1.1" xmlns="http://www.w3.org/2000/svg" p-id="3369" xmlns:xlink="http://www.w3.org/1999/xlink" width="200" height="200"><defs><style type="text/css"></style></defs><path d="M443.225166 233.057281a650.178628 650.178628 0 0 1 28.257281-63.604998c24.000408-47.073706 48.510074-80.031829 72.836929-97.934201C581.168752 44.396838 635.554878 26.115787 679.716673 26.115787c63.383015 0 70.512624 36.771028 71.178577 48.03999 0.940168 15.747819-6.267789 37.867891-10.642183 49.619994S726.960131 156.838358 716.135138 168.446825c-8.905483 9.466973-18.137414 11.451773-24.313798 11.451772a29.641418 29.641418 0 0 1-24.718592-13.593267 95.792706 95.792706 0 0 1-8.330936-16.975261 69.585514 69.585514 0 0 0-4.622494-9.937057h-1.527774c-53.093395 4.361336-72.197093 23.412803-92.906911 92.711043l-4.204642 14.076409-129.54736 33.859118z" fill="#76DDA2" p-id="3370"></path><path d="M679.716673 52.231574c25.645703 0 44.161795 7.482173 45.115022 23.504208 1.17521 19.65213-21.989492 78.020913-33.023413 78.020913a3.447284 3.447284 0 0 1-2.898852-1.828105c-8.709615-13.253762-9.937057-38.67748-35.099617-38.677481-1.070747 0-2.193726 0-3.355879 0.143637C583.323304 118.82683 557.37727 148.598827 534.656535 224.595766l-66.921703 17.497578S509.102238 129.873808 559.819096 92.515175C595.075408 66.595256 644.212261 52.231574 679.716673 52.231574m0-52.231574c-50.037847 0-109.255394 19.808824-150.8709 50.468758-28.022239 20.644529-54.399184 55.691915-80.619434 107.074726a679.637235 679.637235 0 0 0-29.497781 66.425504l-34.616476 93.912369 96.837338-25.306198 66.921703-17.484519 28.413977-7.403825 8.409283-28.139761c9.323336-31.169192 18.281051-50.233716 28.035297-59.974904 4.40051-4.374394 10.942515-8.996889 25.462892-11.934915a95.988574 95.988574 0 0 0 7.077378 12.953431 55.678857 55.678857 0 0 0 46.538332 25.358429c11.321194 0 28.035297-3.40811 43.339149-19.58684 13.332109-14.154756 23.504208-36.849375 29.602244-53.393727 9.04912-24.366029 13.162357-44.657995 12.235246-60.314409-1.593063-26.755624-17.118898-49.202142-42.58179-61.594083C719.386553 3.708442 700.987981 0 679.716673 0z" fill="#434E52" p-id="3371"></path><path d="M364.85169 997.884213c-51.043305 0-97.307422-16.283193-137.48656-48.392553-34.054986-27.21265-64.075083-66.242693-89.224585-116.006325-36.966896-73.124203-64.558225-171.69824-82.042745-292.953838-7.051262-48.954042-5.223157-92.149554 5.223158-128.398266 9.976231-34.303086 28.035297-63.422188 53.667942-86.573833 51.056363-46.120479 123.188166-61.437388 180.342565-69.624687 30.18985-4.348279 56.423157-6.528947 80.175466-6.528947 61.476562 0 109.425147 14.285335 146.587911 43.665595 44.07039 34.83846 72.02734 91.405254 83.100433 168.303188 18.698903 129.769345 18.920888 237.732007 0.665953 320.89773-12.587809 57.324152-34.211681 104.032237-64.284009 138.831523-35.256312 40.858148-82.264728 65.772609-139.719459 74.038256a260.622494 260.622494 0 0 1-37.00607 2.729099z" fill="#FF6252" p-id="3372"></path><path d="M375.506931 275.521551c97.738332 0 182.027034 38.24657 203.846773 189.574496 27.421576 189.874828 35.726396 472.930783-181.204386 504.19138a233.174802 233.174802 0 0 1-33.297628 2.454884C173.723304 971.768426 107.85929 716.591074 81.900198 536.79694 54.478622 346.922112 171.76462 300.07039 299.013791 281.72405c25.828513-3.7215 51.565621-6.202499 76.453966-6.202499m0-52.231574c-25.018924 0-52.466616 2.206784-83.910023 6.737873-39.604591 5.706299-72.719408 13.319051-101.22479 23.282224C152.713154 266.459373 122.379667 283.761081 97.56967 306.168426 68.241641 332.610661 47.636285 365.803826 36.275918 404.794695c-11.595409 39.878806-13.619383 86.78276-6.032747 139.458302C38.077907 598.547717 47.949675 648.859781 59.701779 693.765876c15.068809 57.898699 33.637133 108.876715 55.1696 151.471563 26.847029 53.132568 59.230604 95.061464 96.236674 124.624535 44.932211 35.896149 96.628411 54.098852 153.795868 54.098852a286.751339 286.751339 0 0 0 40.740628-2.990257c82.264728-11.856567 188.19036-61.92053 225.784034-233.122571 10.72053-48.810406 15.395256-105.768936 13.932773-169.491456-1.136037-48.849579-5.928284-102.922316-14.25922-160.72961-6.045805-41.981127-16.975261-78.817445-32.331344-109.46432s-35.726396-56.070594-60.418873-75.592145C496.344676 239.429533 443.094587 223.289977 375.506931 223.289977z" fill="#434E52" p-id="3373"></path><path d="M659.150491 997.884213a260.687784 260.687784 0 0 1-37.019128-2.7291c-57.454731-8.278704-104.463147-33.180107-139.719459-74.038255-30.033155-34.799286-51.6962-81.507371-64.284009-138.831523-18.281051-83.165723-18.032951-191.128386 0.665952-320.89773 11.073094-76.832645 39.030043-133.464728 83.100434-168.303188C539.057045 263.704157 587.00563 249.405764 648.49525 249.405764c23.765366 0 49.985616 2.115379 80.175465 6.528947 57.141341 8.239531 129.273145 23.595613 180.303392 69.676919 25.632645 23.151645 43.691711 52.231574 53.667942 86.573833 10.550778 36.235654 12.313593 79.444223 5.223158 128.398266-17.445346 121.203366-45.036674 219.764346-82.003571 292.901606-25.149503 49.763632-55.1696 88.793675-89.224585 116.006325-40.192196 32.10936-86.443254 48.392553-137.48656 48.392553z" fill="#FF6252" p-id="3374"></path><path d="M648.49525 275.521551c24.888345 0 50.638511 2.481 76.453966 6.202499 127.236113 18.281051 244.46988 65.198062 217.113593 255.07289-25.90686 179.794134-91.783933 434.958429-282.912318 434.958429a233.174802 233.174802 0 0 1-33.297628-2.454884C408.92208 938.039888 417.279132 654.983933 444.648476 465.109105 466.455158 313.76812 550.74386 275.521551 648.49525 275.521551m0-52.231574c-67.600714 0-120.837745 16.126498-162.792757 49.306606-24.692476 19.58684-45.023616 44.958327-60.418873 75.592144s-26.285539 67.483193-32.331344 109.464321c-8.330936 57.807294-13.123183 111.880031-14.259219 160.729609-1.475542 63.670288 3.212242 120.694109 13.932772 169.491457 37.580617 171.20204 143.519306 221.279061 225.770977 233.122571a286.777455 286.777455 0 0 0 40.740627 2.990257c57.115226 0 108.863657-18.202703 153.795869-54.098852 37.00607-29.563071 69.376588-71.491966 96.236674-124.624535 21.545524-42.620964 40.100791-93.585922 55.169599-151.471563 11.752104-44.906095 21.584698-95.218159 29.406376-149.525937 7.586636-52.675542 5.562663-99.579495-6.032746-139.419128-11.347309-39.016985-31.952665-72.21015-61.24152-98.652385-24.809997-22.420403-55.195715-39.709054-92.867738-52.87141-28.505381-9.950115-61.607141-17.562867-101.22479-23.282224-31.443407-4.531089-58.878041-6.737873-83.896965-6.737873z" fill="#434E52" p-id="3375"></path><path d="M512.00109 986.00153c-57.990105 0-108.067126-17.954603-148.859984-53.354552-34.720939-30.163734-62.782351-73.307014-83.413823-128.280745-29.94175-79.65315-45.115022-186.610355-45.115022-317.711604 0-49.4633 7.913083-91.966743 23.504208-126.335119 14.768477-32.527212 36.797144-58.76052 65.45922-78.020913 57.076052-38.324917 130.670339-43.247743 188.399286-43.247743s131.414639 4.948942 188.425401 43.273859c28.727365 19.247335 50.690742 45.506758 65.45922 78.020913 15.669472 34.368375 23.504208 76.871818 23.504208 126.335119 0 131.114308-15.173272 238.006223-45.115022 317.711604-20.631472 54.934558-48.705942 98.077837-83.426881 128.241571-40.753685 35.413007-90.830706 53.36761-148.820811 53.36761z" fill="#FF6252" p-id="3376"></path><path d="M512.00109 265.205815c128.55496 0 251.273043 29.654476 251.273043 221.487988S731.177831 959.885743 512.00109 959.885743 260.728048 678.527314 260.728048 486.693803s122.744198-221.487988 251.273042-221.487988m0-52.231574c-40.022443 0-73.881561 2.807447-103.509921 8.605152-39.17368 7.651926-71.687835 20.435603-99.461974 39.082275-32.749197 21.989492-57.885641 51.905126-74.678092 88.911196-17.158072 37.776486-25.854629 83.923081-25.854629 137.107881 0 58.394899 2.964142 112.611273 8.814078 161.121346 7.62581 63.22632 20.396429 118.996583 37.959296 165.835246 61.620199 164.085488 173.669982 198.47998 256.718184 198.47998s195.097985-34.446723 256.718185-198.47998c17.562867-46.773374 30.346544-102.556695 37.959296-165.835246 5.849936-48.510074 8.814078-102.713389 8.814078-161.121346 0-53.210916-8.696557-99.357511-25.854629-137.107881-16.805509-37.00607-41.928896-66.908646-74.678093-88.911196-27.774139-18.646672-60.301352-31.430349-99.461974-39.082275-29.550013-5.797705-63.500536-8.605152-103.483805-8.605152z" fill="#434E52" p-id="3377"></path><path d="M763.522233 485.753634c0 164.934251-23.726192 396.045907-169.752614 457.613874C711.512644 859.209385 731.700147 639.353634 731.700147 478.872124c0-101.068095-30.594644-159.462994-77.263556-192.616985C718.524732 312.893242 763.522233 369.538383 763.522233 485.753634z" fill="#E54C4C" p-id="3378"></path><path d="M943.721162 536.809997c-26.533639 184.116297-94.930885 447.128386-296.740628 434.514461C828.8117 960.02938 893.108767 707.019638 918.911164 527.643356c16.544351-114.818057-17.928488-178.214129-75.265697-214.632593C915.098259 346.164754 962.002212 409.16909 943.721162 536.809997z" fill="#E54C4C" p-id="3379"></path><path d="M80.594408 536.809997c26.533639 184.116297 94.930885 447.128386 296.740628 434.514461C195.425523 960.02938 131.115398 707.019638 105.273827 527.643356c-16.544351-114.818057 17.928488-178.214129 75.265697-214.632593C109.125905 346.164754 62.182779 409.16909 80.594408 536.809997z" fill="#FF8080" p-id="3380"></path><path d="M261.224248 487.372813c0 164.934251 23.726192 396.045907 169.752614 457.613874-117.638562-84.171181-137.826065-304.053048-137.826065-464.534557 0-101.068095 30.594644-159.462994 77.263555-192.616986-64.15343 26.638103-109.190105 83.335476-109.190104 199.537669z" fill="#FF8080" p-id="3381"></path></svg>